<mxfile host="app.diagrams.net" modified="2023-11-23T21:35:33.666Z" agent="Mozilla/5.0 (Windows NT 10.0; Win64; x64) AppleWebKit/537.36 (KHTML, like Gecko) Chrome/119.0.0.0 Safari/537.36" etag="dQyjo924xbxF1d8CatnB" version="22.1.3" type="google">
  <diagram name="Página-1" id="7l8tyDfGLwZmdJZNz_ej">
    <mxGraphModel grid="1" page="1" gridSize="10" guides="1" tooltips="1" connect="1" arrows="1" fold="1" pageScale="1" pageWidth="827" pageHeight="1169" math="0" shadow="0">
      <root>
        <mxCell id="0" />
        <mxCell id="1" parent="0" />
        <mxCell id="vGXlyOVtwqllNXbLvumG-1" value="" style="swimlane;startSize=0;" vertex="1" parent="1">
          <mxGeometry x="160" y="-240" width="720" height="1440" as="geometry" />
        </mxCell>
        <mxCell id="vGXlyOVtwqllNXbLvumG-4" value="Manter cliente" style="ellipse;whiteSpace=wrap;html=1;" vertex="1" parent="vGXlyOVtwqllNXbLvumG-1">
          <mxGeometry x="20" y="15" width="120" height="80" as="geometry" />
        </mxCell>
        <mxCell id="vGXlyOVtwqllNXbLvumG-11" value="Inativar cliente" style="ellipse;whiteSpace=wrap;html=1;" vertex="1" parent="vGXlyOVtwqllNXbLvumG-1">
          <mxGeometry x="140" y="140" width="120" height="80" as="geometry" />
        </mxCell>
        <mxCell id="vGXlyOVtwqllNXbLvumG-10" value="Listar cliente" style="ellipse;whiteSpace=wrap;html=1;" vertex="1" parent="vGXlyOVtwqllNXbLvumG-1">
          <mxGeometry x="140" y="50" width="120" height="80" as="geometry" />
        </mxCell>
        <mxCell id="vGXlyOVtwqllNXbLvumG-23" value="Listar categoria" style="ellipse;whiteSpace=wrap;html=1;" vertex="1" parent="vGXlyOVtwqllNXbLvumG-1">
          <mxGeometry x="80" y="750" width="120" height="80" as="geometry" />
        </mxCell>
        <mxCell id="vGXlyOVtwqllNXbLvumG-5" value="Inativar produto" style="ellipse;whiteSpace=wrap;html=1;" vertex="1" parent="vGXlyOVtwqllNXbLvumG-1">
          <mxGeometry x="140" y="490.00000000000006" width="120" height="80" as="geometry" />
        </mxCell>
        <mxCell id="vGXlyOVtwqllNXbLvumG-6" value="Manter categoria" style="ellipse;whiteSpace=wrap;html=1;" vertex="1" parent="vGXlyOVtwqllNXbLvumG-1">
          <mxGeometry x="80" y="660" width="120" height="80" as="geometry" />
        </mxCell>
        <mxCell id="vGXlyOVtwqllNXbLvumG-17" value="Listar produto" style="ellipse;whiteSpace=wrap;html=1;" vertex="1" parent="vGXlyOVtwqllNXbLvumG-1">
          <mxGeometry x="133" y="410.00000000000006" width="120" height="80" as="geometry" />
        </mxCell>
        <mxCell id="vGXlyOVtwqllNXbLvumG-16" value="Manter produto" style="ellipse;whiteSpace=wrap;html=1;" vertex="1" parent="vGXlyOVtwqllNXbLvumG-1">
          <mxGeometry x="70" y="320.00000000000006" width="120" height="80" as="geometry" />
        </mxCell>
        <mxCell id="vGXlyOVtwqllNXbLvumG-24" value="ADM" style="shape=umlActor;verticalLabelPosition=bottom;verticalAlign=top;html=1;outlineConnect=0;" vertex="1" parent="vGXlyOVtwqllNXbLvumG-1">
          <mxGeometry x="-70" y="722" width="30" height="60" as="geometry" />
        </mxCell>
        <mxCell id="vGXlyOVtwqllNXbLvumG-25" value="" style="endArrow=classic;html=1;rounded=0;entryX=0;entryY=0.5;entryDx=0;entryDy=0;" edge="1" parent="vGXlyOVtwqllNXbLvumG-1" source="vGXlyOVtwqllNXbLvumG-24" target="vGXlyOVtwqllNXbLvumG-6">
          <mxGeometry width="50" height="50" relative="1" as="geometry">
            <mxPoint x="430" y="702" as="sourcePoint" />
            <mxPoint x="480" y="652" as="targetPoint" />
          </mxGeometry>
        </mxCell>
        <mxCell id="vGXlyOVtwqllNXbLvumG-27" value="" style="endArrow=classic;html=1;rounded=0;" edge="1" parent="vGXlyOVtwqllNXbLvumG-1" source="vGXlyOVtwqllNXbLvumG-24" target="vGXlyOVtwqllNXbLvumG-23">
          <mxGeometry width="50" height="50" relative="1" as="geometry">
            <mxPoint x="430" y="702" as="sourcePoint" />
            <mxPoint x="106.0976043854971" y="832.9134846910133" as="targetPoint" />
          </mxGeometry>
        </mxCell>
        <mxCell id="IdaOrlInzy_ssazZ83Ks-1" value="Reativar cliente" style="ellipse;whiteSpace=wrap;html=1;" vertex="1" parent="vGXlyOVtwqllNXbLvumG-1">
          <mxGeometry x="133" y="240" width="120" height="80" as="geometry" />
        </mxCell>
        <mxCell id="iEMNKNSbO0M06OVyzrgP-1" value="Reativar produto" style="ellipse;whiteSpace=wrap;html=1;" vertex="1" parent="vGXlyOVtwqllNXbLvumG-1">
          <mxGeometry x="30" y="570" width="120" height="80" as="geometry" />
        </mxCell>
        <mxCell id="vGXlyOVtwqllNXbLvumG-33" value="Remover itens no carrinho" style="ellipse;whiteSpace=wrap;html=1;" vertex="1" parent="vGXlyOVtwqllNXbLvumG-1">
          <mxGeometry x="474" y="110" width="120" height="80" as="geometry" />
        </mxCell>
        <mxCell id="vGXlyOVtwqllNXbLvumG-30" value="Adicionar itens no carrinho" style="ellipse;whiteSpace=wrap;html=1;" vertex="1" parent="vGXlyOVtwqllNXbLvumG-1">
          <mxGeometry x="474" y="12" width="120" height="80" as="geometry" />
        </mxCell>
        <mxCell id="IdaOrlInzy_ssazZ83Ks-5" value="Consultar itens no carrinho" style="ellipse;whiteSpace=wrap;html=1;" vertex="1" parent="vGXlyOVtwqllNXbLvumG-1">
          <mxGeometry x="475" y="220" width="120" height="80" as="geometry" />
        </mxCell>
        <mxCell id="iEMNKNSbO0M06OVyzrgP-9" value="ADM" style="shape=umlActor;verticalLabelPosition=bottom;verticalAlign=top;html=1;outlineConnect=0;" vertex="1" parent="vGXlyOVtwqllNXbLvumG-1">
          <mxGeometry x="-70" y="940" width="30" height="60" as="geometry" />
        </mxCell>
        <mxCell id="iEMNKNSbO0M06OVyzrgP-7" value="Manter endereco" style="ellipse;whiteSpace=wrap;html=1;" vertex="1" parent="vGXlyOVtwqllNXbLvumG-1">
          <mxGeometry x="80" y="860" width="120" height="80" as="geometry" />
        </mxCell>
        <mxCell id="iEMNKNSbO0M06OVyzrgP-6" value="Listar endereço" style="ellipse;whiteSpace=wrap;html=1;" vertex="1" parent="vGXlyOVtwqllNXbLvumG-1">
          <mxGeometry x="80" y="970" width="120" height="80" as="geometry" />
        </mxCell>
        <mxCell id="iEMNKNSbO0M06OVyzrgP-12" value="" style="endArrow=classic;html=1;rounded=0;" edge="1" parent="vGXlyOVtwqllNXbLvumG-1" source="iEMNKNSbO0M06OVyzrgP-9" target="iEMNKNSbO0M06OVyzrgP-6">
          <mxGeometry width="50" height="50" relative="1" as="geometry">
            <mxPoint x="430" y="910" as="sourcePoint" />
            <mxPoint x="106.0976043854971" y="1040.9134846910133" as="targetPoint" />
          </mxGeometry>
        </mxCell>
        <mxCell id="iEMNKNSbO0M06OVyzrgP-10" value="" style="endArrow=classic;html=1;rounded=0;entryX=0;entryY=0.5;entryDx=0;entryDy=0;" edge="1" parent="vGXlyOVtwqllNXbLvumG-1" source="iEMNKNSbO0M06OVyzrgP-9" target="iEMNKNSbO0M06OVyzrgP-7">
          <mxGeometry width="50" height="50" relative="1" as="geometry">
            <mxPoint x="430" y="910" as="sourcePoint" />
            <mxPoint x="480" y="860" as="targetPoint" />
          </mxGeometry>
        </mxCell>
        <mxCell id="iEMNKNSbO0M06OVyzrgP-20" value="ADM" style="shape=umlActor;verticalLabelPosition=bottom;verticalAlign=top;html=1;outlineConnect=0;" vertex="1" parent="vGXlyOVtwqllNXbLvumG-1">
          <mxGeometry x="-70" y="1150" width="30" height="60" as="geometry" />
        </mxCell>
        <mxCell id="iEMNKNSbO0M06OVyzrgP-21" value="Manter promoção" style="ellipse;whiteSpace=wrap;html=1;" vertex="1" parent="vGXlyOVtwqllNXbLvumG-1">
          <mxGeometry x="80" y="1070" width="120" height="80" as="geometry" />
        </mxCell>
        <mxCell id="iEMNKNSbO0M06OVyzrgP-22" value="Listar promoções" style="ellipse;whiteSpace=wrap;html=1;" vertex="1" parent="vGXlyOVtwqllNXbLvumG-1">
          <mxGeometry x="80" y="1180" width="120" height="80" as="geometry" />
        </mxCell>
        <mxCell id="iEMNKNSbO0M06OVyzrgP-23" value="" style="endArrow=classic;html=1;rounded=0;" edge="1" parent="vGXlyOVtwqllNXbLvumG-1" source="iEMNKNSbO0M06OVyzrgP-20" target="iEMNKNSbO0M06OVyzrgP-22">
          <mxGeometry width="50" height="50" relative="1" as="geometry">
            <mxPoint x="430" y="1120" as="sourcePoint" />
            <mxPoint x="106.0976043854971" y="1250.9134846910133" as="targetPoint" />
          </mxGeometry>
        </mxCell>
        <mxCell id="iEMNKNSbO0M06OVyzrgP-24" value="" style="endArrow=classic;html=1;rounded=0;entryX=0;entryY=0.5;entryDx=0;entryDy=0;" edge="1" parent="vGXlyOVtwqllNXbLvumG-1" source="iEMNKNSbO0M06OVyzrgP-20" target="iEMNKNSbO0M06OVyzrgP-21">
          <mxGeometry width="50" height="50" relative="1" as="geometry">
            <mxPoint x="430" y="1120" as="sourcePoint" />
            <mxPoint x="480" y="1070" as="targetPoint" />
          </mxGeometry>
        </mxCell>
        <mxCell id="iEMNKNSbO0M06OVyzrgP-60" value="Cancelar pedido" style="ellipse;whiteSpace=wrap;html=1;" vertex="1" parent="vGXlyOVtwqllNXbLvumG-1">
          <mxGeometry x="464" y="740" width="120" height="80" as="geometry" />
        </mxCell>
        <mxCell id="IdaOrlInzy_ssazZ83Ks-14" value="Realizar pagamento" style="ellipse;whiteSpace=wrap;html=1;" vertex="1" parent="vGXlyOVtwqllNXbLvumG-1">
          <mxGeometry x="464" y="845" width="120" height="80" as="geometry" />
        </mxCell>
        <mxCell id="IdaOrlInzy_ssazZ83Ks-9" value="Cancelar pagamento" style="ellipse;whiteSpace=wrap;html=1;" vertex="1" parent="vGXlyOVtwqllNXbLvumG-1">
          <mxGeometry x="464" y="1140" width="120" height="80" as="geometry" />
        </mxCell>
        <mxCell id="IdaOrlInzy_ssazZ83Ks-7" value="Buscar pagamento" style="ellipse;whiteSpace=wrap;html=1;" vertex="1" parent="vGXlyOVtwqllNXbLvumG-1">
          <mxGeometry x="464" y="1030" width="120" height="80" as="geometry" />
        </mxCell>
        <mxCell id="IdaOrlInzy_ssazZ83Ks-8" value="Listar pagamento" style="ellipse;whiteSpace=wrap;html=1;" vertex="1" parent="vGXlyOVtwqllNXbLvumG-1">
          <mxGeometry x="464" y="940" width="120" height="80" as="geometry" />
        </mxCell>
        <mxCell id="iEMNKNSbO0M06OVyzrgP-76" value="Cancelar pagamento" style="ellipse;whiteSpace=wrap;html=1;" vertex="1" parent="vGXlyOVtwqllNXbLvumG-1">
          <mxGeometry x="464" y="1250" width="130" height="80" as="geometry" />
        </mxCell>
        <mxCell id="iEMNKNSbO0M06OVyzrgP-81" value="Buscar pagamento" style="ellipse;whiteSpace=wrap;html=1;" vertex="1" parent="vGXlyOVtwqllNXbLvumG-1">
          <mxGeometry x="360" y="1300" width="120" height="80" as="geometry" />
        </mxCell>
        <mxCell id="iEMNKNSbO0M06OVyzrgP-83" value="" style="endArrow=classic;html=1;rounded=0;entryX=0;entryY=1;entryDx=0;entryDy=0;" edge="1" parent="vGXlyOVtwqllNXbLvumG-1" source="iEMNKNSbO0M06OVyzrgP-80" target="iEMNKNSbO0M06OVyzrgP-82">
          <mxGeometry width="50" height="50" relative="1" as="geometry">
            <mxPoint x="550" y="1440" as="sourcePoint" />
            <mxPoint x="670" y="1460" as="targetPoint" />
            <Array as="points" />
          </mxGeometry>
        </mxCell>
        <mxCell id="iEMNKNSbO0M06OVyzrgP-80" value="ADM" style="shape=umlActor;verticalLabelPosition=bottom;verticalAlign=top;html=1;outlineConnect=0;" vertex="1" parent="vGXlyOVtwqllNXbLvumG-1">
          <mxGeometry x="520" y="1475" width="30" height="60" as="geometry" />
        </mxCell>
        <mxCell id="iEMNKNSbO0M06OVyzrgP-78" value="" style="endArrow=classic;html=1;rounded=0;entryX=0.5;entryY=1;entryDx=0;entryDy=0;" edge="1" parent="vGXlyOVtwqllNXbLvumG-1" source="iEMNKNSbO0M06OVyzrgP-80" target="iEMNKNSbO0M06OVyzrgP-81">
          <mxGeometry width="50" height="50" relative="1" as="geometry">
            <mxPoint x="500" y="1470" as="sourcePoint" />
            <mxPoint x="660" y="1360" as="targetPoint" />
            <Array as="points" />
          </mxGeometry>
        </mxCell>
        <mxCell id="iEMNKNSbO0M06OVyzrgP-82" value="Listar pagamento" style="ellipse;whiteSpace=wrap;html=1;" vertex="1" parent="vGXlyOVtwqllNXbLvumG-1">
          <mxGeometry x="584" y="1300" width="120" height="80" as="geometry" />
        </mxCell>
        <mxCell id="iEMNKNSbO0M06OVyzrgP-67" value="Cancelar pedido" style="ellipse;whiteSpace=wrap;html=1;" vertex="1" parent="vGXlyOVtwqllNXbLvumG-1">
          <mxGeometry x="180" y="1280" width="120" height="80" as="geometry" />
        </mxCell>
        <mxCell id="iEMNKNSbO0M06OVyzrgP-68" value="Manter pedido" style="ellipse;whiteSpace=wrap;html=1;" vertex="1" parent="vGXlyOVtwqllNXbLvumG-1">
          <mxGeometry x="50" y="1280" width="120" height="80" as="geometry" />
        </mxCell>
        <mxCell id="iEMNKNSbO0M06OVyzrgP-61" value="Manter pedido" style="ellipse;whiteSpace=wrap;html=1;" vertex="1" parent="vGXlyOVtwqllNXbLvumG-1">
          <mxGeometry x="469" y="650" width="120" height="80" as="geometry" />
        </mxCell>
        <mxCell id="iEMNKNSbO0M06OVyzrgP-15" value="Consultar itens favoritos" style="ellipse;whiteSpace=wrap;html=1;" vertex="1" parent="vGXlyOVtwqllNXbLvumG-1">
          <mxGeometry x="469" y="540" width="120" height="80" as="geometry" />
        </mxCell>
        <mxCell id="iEMNKNSbO0M06OVyzrgP-13" value="Remover itens favoritos" style="ellipse;whiteSpace=wrap;html=1;" vertex="1" parent="vGXlyOVtwqllNXbLvumG-1">
          <mxGeometry x="469" y="430" width="120" height="80" as="geometry" />
        </mxCell>
        <mxCell id="iEMNKNSbO0M06OVyzrgP-14" value="Adicionar itens favoritos" style="ellipse;whiteSpace=wrap;html=1;" vertex="1" parent="vGXlyOVtwqllNXbLvumG-1">
          <mxGeometry x="469" y="320" width="120" height="80" as="geometry" />
        </mxCell>
        <mxCell id="IdaOrlInzy_ssazZ83Ks-16" value="" style="endArrow=classic;html=1;rounded=0;" edge="1" parent="vGXlyOVtwqllNXbLvumG-1" source="iEMNKNSbO0M06OVyzrgP-80" target="iEMNKNSbO0M06OVyzrgP-76">
          <mxGeometry width="50" height="50" relative="1" as="geometry">
            <mxPoint x="560" y="1485" as="sourcePoint" />
            <mxPoint x="612" y="1378" as="targetPoint" />
            <Array as="points" />
          </mxGeometry>
        </mxCell>
        <mxCell id="vGXlyOVtwqllNXbLvumG-3" value="ADM" style="shape=umlActor;verticalLabelPosition=bottom;verticalAlign=top;html=1;outlineConnect=0;" vertex="1" parent="1">
          <mxGeometry x="80" y="-20" width="30" height="60" as="geometry" />
        </mxCell>
        <mxCell id="vGXlyOVtwqllNXbLvumG-7" value="" style="endArrow=classic;html=1;rounded=0;" edge="1" parent="1" source="vGXlyOVtwqllNXbLvumG-3" target="vGXlyOVtwqllNXbLvumG-4">
          <mxGeometry width="50" height="50" relative="1" as="geometry">
            <mxPoint x="630" y="430" as="sourcePoint" />
            <mxPoint x="680" y="380" as="targetPoint" />
          </mxGeometry>
        </mxCell>
        <mxCell id="vGXlyOVtwqllNXbLvumG-13" value="Sistema Oh My Dog" style="text;html=1;strokeColor=none;fillColor=none;align=center;verticalAlign=middle;whiteSpace=wrap;rounded=0;" vertex="1" parent="1">
          <mxGeometry x="160" y="-270" width="120" height="30" as="geometry" />
        </mxCell>
        <mxCell id="vGXlyOVtwqllNXbLvumG-14" value="" style="endArrow=classic;html=1;rounded=0;" edge="1" parent="1" source="vGXlyOVtwqllNXbLvumG-3" target="vGXlyOVtwqllNXbLvumG-10">
          <mxGeometry width="50" height="50" relative="1" as="geometry">
            <mxPoint x="630" y="360" as="sourcePoint" />
            <mxPoint x="680" y="310" as="targetPoint" />
          </mxGeometry>
        </mxCell>
        <mxCell id="vGXlyOVtwqllNXbLvumG-15" value="" style="endArrow=classic;html=1;rounded=0;entryX=0;entryY=0.5;entryDx=0;entryDy=0;" edge="1" parent="1" source="vGXlyOVtwqllNXbLvumG-3" target="vGXlyOVtwqllNXbLvumG-11">
          <mxGeometry width="50" height="50" relative="1" as="geometry">
            <mxPoint x="300" y="120" as="sourcePoint" />
            <mxPoint x="680" y="310" as="targetPoint" />
          </mxGeometry>
        </mxCell>
        <mxCell id="vGXlyOVtwqllNXbLvumG-32" value="Cliente" style="shape=umlActor;verticalLabelPosition=bottom;verticalAlign=top;html=1;outlineConnect=0;" vertex="1" parent="1">
          <mxGeometry x="967" y="-170" width="30" height="60" as="geometry" />
        </mxCell>
        <mxCell id="iEMNKNSbO0M06OVyzrgP-5" value="" style="endArrow=classic;html=1;rounded=0;entryX=1;entryY=0;entryDx=0;entryDy=0;" edge="1" parent="1" source="vGXlyOVtwqllNXbLvumG-32" target="IdaOrlInzy_ssazZ83Ks-5">
          <mxGeometry width="50" height="50" relative="1" as="geometry">
            <mxPoint x="1040" y="-110" as="sourcePoint" />
            <mxPoint x="862" y="-78" as="targetPoint" />
            <Array as="points" />
          </mxGeometry>
        </mxCell>
        <mxCell id="iEMNKNSbO0M06OVyzrgP-4" value="" style="endArrow=classic;html=1;rounded=0;entryX=1;entryY=0.5;entryDx=0;entryDy=0;" edge="1" parent="1" source="vGXlyOVtwqllNXbLvumG-32" target="vGXlyOVtwqllNXbLvumG-33">
          <mxGeometry width="50" height="50" relative="1" as="geometry">
            <mxPoint x="1050" y="-130" as="sourcePoint" />
            <mxPoint x="880" y="-155" as="targetPoint" />
            <Array as="points" />
          </mxGeometry>
        </mxCell>
        <mxCell id="IdaOrlInzy_ssazZ83Ks-6" value="" style="endArrow=classic;html=1;rounded=0;" edge="1" parent="1" source="vGXlyOVtwqllNXbLvumG-3" target="IdaOrlInzy_ssazZ83Ks-1">
          <mxGeometry width="50" height="50" relative="1" as="geometry">
            <mxPoint x="150" y="13" as="sourcePoint" />
            <mxPoint x="330" y="-70" as="targetPoint" />
          </mxGeometry>
        </mxCell>
        <mxCell id="vGXlyOVtwqllNXbLvumG-21" value="ADM" style="shape=umlActor;verticalLabelPosition=bottom;verticalAlign=top;html=1;outlineConnect=0;" vertex="1" parent="1">
          <mxGeometry x="80" y="184.09000000000003" width="30" height="60" as="geometry" />
        </mxCell>
        <mxCell id="vGXlyOVtwqllNXbLvumG-8" value="" style="endArrow=classic;html=1;rounded=0;" edge="1" parent="1" source="vGXlyOVtwqllNXbLvumG-21" target="vGXlyOVtwqllNXbLvumG-5">
          <mxGeometry width="50" height="50" relative="1" as="geometry">
            <mxPoint x="580" y="414.09000000000003" as="sourcePoint" />
            <mxPoint x="630" y="364.09000000000003" as="targetPoint" />
          </mxGeometry>
        </mxCell>
        <mxCell id="vGXlyOVtwqllNXbLvumG-18" value="" style="endArrow=classic;html=1;rounded=0;entryX=0;entryY=0.5;entryDx=0;entryDy=0;" edge="1" parent="1" source="vGXlyOVtwqllNXbLvumG-21" target="vGXlyOVtwqllNXbLvumG-16">
          <mxGeometry width="50" height="50" relative="1" as="geometry">
            <mxPoint x="580" y="164.09000000000003" as="sourcePoint" />
            <mxPoint x="630" y="114.09000000000003" as="targetPoint" />
          </mxGeometry>
        </mxCell>
        <mxCell id="vGXlyOVtwqllNXbLvumG-19" value="" style="endArrow=classic;html=1;rounded=0;" edge="1" parent="1" source="vGXlyOVtwqllNXbLvumG-21" target="vGXlyOVtwqllNXbLvumG-17">
          <mxGeometry width="50" height="50" relative="1" as="geometry">
            <mxPoint x="580" y="164.09000000000003" as="sourcePoint" />
            <mxPoint x="630" y="114.09000000000003" as="targetPoint" />
          </mxGeometry>
        </mxCell>
        <mxCell id="iEMNKNSbO0M06OVyzrgP-2" value="" style="endArrow=classic;html=1;rounded=0;" edge="1" parent="1" source="vGXlyOVtwqllNXbLvumG-21" target="iEMNKNSbO0M06OVyzrgP-1">
          <mxGeometry width="50" height="50" relative="1" as="geometry">
            <mxPoint x="120" y="270" as="sourcePoint" />
            <mxPoint x="300" y="410" as="targetPoint" />
          </mxGeometry>
        </mxCell>
        <mxCell id="iEMNKNSbO0M06OVyzrgP-16" value="" style="endArrow=classic;html=1;rounded=0;entryX=1;entryY=0.5;entryDx=0;entryDy=0;" edge="1" parent="1" source="iEMNKNSbO0M06OVyzrgP-17" target="iEMNKNSbO0M06OVyzrgP-14">
          <mxGeometry width="50" height="50" relative="1" as="geometry">
            <mxPoint x="1040" y="175" as="sourcePoint" />
            <mxPoint x="950" y="135" as="targetPoint" />
            <Array as="points" />
          </mxGeometry>
        </mxCell>
        <mxCell id="iEMNKNSbO0M06OVyzrgP-17" value="Cliente" style="shape=umlActor;verticalLabelPosition=bottom;verticalAlign=top;html=1;outlineConnect=0;" vertex="1" parent="1">
          <mxGeometry x="970" y="160" width="30" height="60" as="geometry" />
        </mxCell>
        <mxCell id="iEMNKNSbO0M06OVyzrgP-18" value="" style="endArrow=classic;html=1;rounded=0;entryX=1;entryY=0;entryDx=0;entryDy=0;" edge="1" parent="1" source="iEMNKNSbO0M06OVyzrgP-17" target="iEMNKNSbO0M06OVyzrgP-15">
          <mxGeometry width="50" height="50" relative="1" as="geometry">
            <mxPoint x="1040" y="215" as="sourcePoint" />
            <mxPoint x="862" y="247" as="targetPoint" />
            <Array as="points" />
          </mxGeometry>
        </mxCell>
        <mxCell id="iEMNKNSbO0M06OVyzrgP-19" value="" style="endArrow=classic;html=1;rounded=0;entryX=1;entryY=0.5;entryDx=0;entryDy=0;" edge="1" parent="1" source="iEMNKNSbO0M06OVyzrgP-17" target="iEMNKNSbO0M06OVyzrgP-13">
          <mxGeometry width="50" height="50" relative="1" as="geometry">
            <mxPoint x="1050" y="195" as="sourcePoint" />
            <mxPoint x="880" y="170" as="targetPoint" />
            <Array as="points" />
          </mxGeometry>
        </mxCell>
        <mxCell id="iEMNKNSbO0M06OVyzrgP-63" value="" style="endArrow=classic;html=1;rounded=0;entryX=1;entryY=0.5;entryDx=0;entryDy=0;" edge="1" parent="1" source="iEMNKNSbO0M06OVyzrgP-64" target="iEMNKNSbO0M06OVyzrgP-61">
          <mxGeometry width="50" height="50" relative="1" as="geometry">
            <mxPoint x="970" y="490" as="sourcePoint" />
            <mxPoint x="950" y="455" as="targetPoint" />
            <Array as="points" />
          </mxGeometry>
        </mxCell>
        <mxCell id="iEMNKNSbO0M06OVyzrgP-64" value="Cliente" style="shape=umlActor;verticalLabelPosition=bottom;verticalAlign=top;html=1;outlineConnect=0;" vertex="1" parent="1">
          <mxGeometry x="970" y="430" width="30" height="60" as="geometry" />
        </mxCell>
        <mxCell id="iEMNKNSbO0M06OVyzrgP-66" value="" style="endArrow=classic;html=1;rounded=0;entryX=1;entryY=0.5;entryDx=0;entryDy=0;" edge="1" parent="1" source="iEMNKNSbO0M06OVyzrgP-64" target="iEMNKNSbO0M06OVyzrgP-60">
          <mxGeometry width="50" height="50" relative="1" as="geometry">
            <mxPoint x="1050" y="515" as="sourcePoint" />
            <mxPoint x="880" y="490" as="targetPoint" />
            <Array as="points" />
          </mxGeometry>
        </mxCell>
        <mxCell id="IdaOrlInzy_ssazZ83Ks-10" value="" style="endArrow=classic;html=1;rounded=0;entryX=1;entryY=0.5;entryDx=0;entryDy=0;" edge="1" parent="1" source="IdaOrlInzy_ssazZ83Ks-11" target="IdaOrlInzy_ssazZ83Ks-8">
          <mxGeometry width="50" height="50" relative="1" as="geometry">
            <mxPoint x="1030" y="820" as="sourcePoint" />
            <mxPoint x="1030" y="765" as="targetPoint" />
            <Array as="points" />
          </mxGeometry>
        </mxCell>
        <mxCell id="IdaOrlInzy_ssazZ83Ks-11" value="Cliente" style="shape=umlActor;verticalLabelPosition=bottom;verticalAlign=top;html=1;outlineConnect=0;" vertex="1" parent="1">
          <mxGeometry x="970" y="700" width="30" height="60" as="geometry" />
        </mxCell>
        <mxCell id="IdaOrlInzy_ssazZ83Ks-12" value="" style="endArrow=classic;html=1;rounded=0;entryX=1;entryY=0;entryDx=0;entryDy=0;exitX=0;exitY=1;exitDx=0;exitDy=0;exitPerimeter=0;" edge="1" parent="1" source="IdaOrlInzy_ssazZ83Ks-11" target="IdaOrlInzy_ssazZ83Ks-9">
          <mxGeometry width="50" height="50" relative="1" as="geometry">
            <mxPoint x="1120" y="845" as="sourcePoint" />
            <mxPoint x="942" y="877" as="targetPoint" />
            <Array as="points" />
          </mxGeometry>
        </mxCell>
        <mxCell id="IdaOrlInzy_ssazZ83Ks-13" value="" style="endArrow=classic;html=1;rounded=0;entryX=1;entryY=0.5;entryDx=0;entryDy=0;" edge="1" parent="1" source="IdaOrlInzy_ssazZ83Ks-11" target="IdaOrlInzy_ssazZ83Ks-7">
          <mxGeometry width="50" height="50" relative="1" as="geometry">
            <mxPoint x="1130" y="825" as="sourcePoint" />
            <mxPoint x="960" y="800" as="targetPoint" />
            <Array as="points" />
          </mxGeometry>
        </mxCell>
        <mxCell id="IdaOrlInzy_ssazZ83Ks-15" value="" style="endArrow=classic;html=1;rounded=0;" edge="1" parent="1" source="IdaOrlInzy_ssazZ83Ks-11" target="IdaOrlInzy_ssazZ83Ks-14">
          <mxGeometry width="50" height="50" relative="1" as="geometry">
            <mxPoint x="1130" y="815" as="sourcePoint" />
            <mxPoint x="900" y="850" as="targetPoint" />
            <Array as="points" />
          </mxGeometry>
        </mxCell>
        <mxCell id="iEMNKNSbO0M06OVyzrgP-3" value="" style="endArrow=classic;html=1;rounded=0;entryX=1;entryY=0.5;entryDx=0;entryDy=0;" edge="1" parent="1" source="vGXlyOVtwqllNXbLvumG-32" target="vGXlyOVtwqllNXbLvumG-30">
          <mxGeometry width="50" height="50" relative="1" as="geometry">
            <mxPoint x="1040" y="-150" as="sourcePoint" />
            <mxPoint x="950" y="-190" as="targetPoint" />
            <Array as="points" />
          </mxGeometry>
        </mxCell>
        <mxCell id="iEMNKNSbO0M06OVyzrgP-75" value="ADM" style="shape=umlActor;verticalLabelPosition=bottom;verticalAlign=top;html=1;outlineConnect=0;" vertex="1" parent="1">
          <mxGeometry x="300" y="1220" width="30" height="60" as="geometry" />
        </mxCell>
        <mxCell id="iEMNKNSbO0M06OVyzrgP-70" value="" style="endArrow=classic;html=1;rounded=0;entryX=0;entryY=1;entryDx=0;entryDy=0;" edge="1" parent="1" target="iEMNKNSbO0M06OVyzrgP-67">
          <mxGeometry width="50" height="50" relative="1" as="geometry">
            <mxPoint x="330" y="1210" as="sourcePoint" />
            <mxPoint x="430" y="1001" as="targetPoint" />
            <Array as="points" />
          </mxGeometry>
        </mxCell>
        <mxCell id="iEMNKNSbO0M06OVyzrgP-69" value="" style="endArrow=classic;html=1;rounded=0;entryX=0.5;entryY=1;entryDx=0;entryDy=0;" edge="1" parent="1" target="iEMNKNSbO0M06OVyzrgP-68">
          <mxGeometry width="50" height="50" relative="1" as="geometry">
            <mxPoint x="300" y="1210" as="sourcePoint" />
            <mxPoint x="500" y="966" as="targetPoint" />
            <Array as="points" />
          </mxGeometry>
        </mxCell>
        <mxCell id="iEMNKNSbO0M06OVyzrgP-88" value="&lt;div&gt;&lt;b&gt;Grupo:&lt;/b&gt;&lt;/div&gt;&lt;div&gt;&lt;ul&gt;&lt;li&gt;Amanda Pagani Lima - 2200564&lt;/li&gt;&lt;li&gt;Bruno Vinícius Alves Santos - 2100913&lt;/li&gt;&lt;li&gt;Evany Marianne Alves Mota Folli -&amp;nbsp; 2200798&lt;/li&gt;&lt;li&gt;Gustavo Emynem Izidre Ribeiro - 2200826&lt;/li&gt;&lt;li&gt;Gustavo Farias Freire - 2201292&lt;/li&gt;&lt;li&gt;Michel Vacari Cruz - 2200102&lt;/li&gt;&lt;/ul&gt;&lt;/div&gt;&lt;div&gt;&lt;br&gt;&lt;/div&gt;" style="text;html=1;align=left;verticalAlign=middle;resizable=0;points=[];autosize=1;strokeColor=#666666;fillColor=#f5f5f5;fontColor=#333333;" vertex="1" parent="1">
          <mxGeometry x="165" y="1330" width="300" height="150" as="geometry" />
        </mxCell>
      </root>
    </mxGraphModel>
  </diagram>
</mxfile>
